<svg height="512" viewBox="0 0 64 64" width="512" xmlns="http://www.w3.org/2000/svg"><path d="m57 13a4 4 0 1 0 -4 4 4 4 0 0 0 4-4zm-6 0a2 2 0 1 1 2 2 2 2 0 0 1 -2-2z"/><path d="m31 37.5a5.506 5.506 0 0 0 5.5 5.5h5a3.5 3.5 0 0 1 0 7h-17.5v2h17.5a5.5 5.5 0 0 0 0-11h-5a3.5 3.5 0 0 1 0-7h16.5v-2h-16.5a5.506 5.506 0 0 0 -5.5 5.5z"/><path d="m17 44h-.54a6 6 0 1 0 -8.92 0h-.54a5 5 0 0 0 -5 5v10a1 1 0 0 0 1 1h18a1 1 0 0 0 1-1v-10a5 5 0 0 0 -5-5zm-5-8a4 4 0 1 1 -4 4 4 4 0 0 1 4-4zm8 22h-2v-5h-2v5h-8v-5h-2v5h-2v-9a3.009 3.009 0 0 1 3-3h10a3.009 3.009 0 0 1 3 3z"/><path d="m56.513 23.443c2.417-3.015 5.487-7.433 5.487-10.443a9 9 0 0 0 -18 0c0 3.01 3.07 7.428 5.487 10.443-2.179.583-3.487 1.684-3.487 3.057 0 2.3 3.521 3.5 7 3.5s7-1.2 7-3.5c0-1.373-1.308-2.474-3.487-3.057zm-3.513-17.443a7.008 7.008 0 0 1 7 7c0 2.972-4.53 8.714-7 11.51-2.47-2.8-7-8.536-7-11.51a7.008 7.008 0 0 1 7-7zm0 22c-3.281 0-5-1.114-5-1.5 0-.252.915-.986 2.927-1.325.657.763 1.158 1.31 1.342 1.507a1 1 0 0 0 1.462 0c.184-.2.685-.744 1.342-1.507 2.012.339 2.927 1.073 2.927 1.325 0 .386-1.719 1.5-5 1.5z"/></svg>